<svg id="visual" viewBox="0 0 900 600" width="900" height="600" xmlns="http://www.w3.org/2000/svg" xmlns:xlink="http://www.w3.org/1999/xlink" version="1.1"><rect x="0" y="0" width="900" height="600" fill="#f8f8f8"></rect><path d="M0 94L37.5 90.3C75 86.7 150 79.3 225 81.3C300 83.3 375 94.7 450 100C525 105.3 600 104.7 675 100C750 95.3 825 86.7 862.5 82.3L900 78L900 0L862.5 0C825 0 750 0 675 0C600 0 525 0 450 0C375 0 300 0 225 0C150 0 75 0 37.5 0L0 0Z" fill="#c9a6df" stroke-linecap="round" stroke-linejoin="miter"></path></svg>