<svg id="visual" viewBox="0 0 960 540" width="960" height="540" xmlns="http://www.w3.org/2000/svg" xmlns:xlink="http://www.w3.org/1999/xlink" version="1.1"><rect x="0" y="0" width="960" height="540" fill="#f5f5f5"></rect><path d="M0 67L40 63C80 59 160 51 240 56.7C320 62.3 400 81.7 480 86.8C560 92 640 83 720 76.7C800 70.3 880 66.7 920 64.8L960 63L960 0L920 0C880 0 800 0 720 0C640 0 560 0 480 0C400 0 320 0 240 0C160 0 80 0 40 0L0 0Z" fill="#c9a6df" stroke-linecap="round" stroke-linejoin="miter"></path></svg>