<svg id="visual" viewBox="0 0 900 600" width="900" height="600" xmlns="http://www.w3.org/2000/svg" xmlns:xlink="http://www.w3.org/1999/xlink" version="1.1"><rect x="0" y="0" width="900" height="600" fill="#f5f5f5"></rect><path d="M0 75L37.5 70.5C75 66 150 57 225 63.2C300 69.3 375 90.7 450 96.5C525 102.3 600 92.7 675 85.7C750 78.7 825 74.3 862.5 72.2L900 70L900 0L862.5 0C825 0 750 0 675 0C600 0 525 0 450 0C375 0 300 0 225 0C150 0 75 0 37.5 0L0 0Z" fill="#c9a6df" stroke-linecap="round" stroke-linejoin="miter"></path></svg>